<?xml version="1.0" encoding="UTF-8" standalone="no"?>
<svg
   xmlns:dc="http://purl.org/dc/elements/1.1/"
   xmlns:cc="http://creativecommons.org/ns#"
   xmlns:rdf="http://www.w3.org/1999/02/22-rdf-syntax-ns#"
   xmlns:svg="http://www.w3.org/2000/svg"
   xmlns="http://www.w3.org/2000/svg"
   xmlns:sodipodi="http://sodipodi.sourceforge.net/DTD/sodipodi-0.dtd"
   xmlns:inkscape="http://www.inkscape.org/namespaces/inkscape"
   version="1.1"
   id="svg2"
   sodipodi:docname="banner.svg"
   inkscape:version="0.92.5 (2060ec1f9f, 2020-04-08)"
   width="493"
   height="58"
   inkscape:export-filename="banner.png"
   inkscape:export-xdpi="96"
   inkscape:export-ydpi="96">
  <metadata
     id="metadata10">
    <rdf:RDF>
      <cc:Work
         rdf:about="">
        <dc:format>image/svg+xml</dc:format>
        <dc:type
           rdf:resource="http://purl.org/dc/dcmitype/StillImage" />
        <dc:title></dc:title>
      </cc:Work>
    </rdf:RDF>
  </metadata>
  <defs
     id="defs6" />
  <sodipodi:namedview
     id="namedview4"
     pagecolor="#ffffff"
     bordercolor="#666666"
     borderopacity="1.0"
     inkscape:pageshadow="2"
     inkscape:pageopacity="0.0"
     inkscape:pagecheckerboard="0"
     showgrid="false"
     inkscape:zoom="1.1091666"
     inkscape:cx="86.214987"
     inkscape:cy="61.330774"
     inkscape:window-width="1680"
     inkscape:window-height="981"
     inkscape:window-x="0"
     inkscape:window-y="0"
     inkscape:window-maximized="1"
     inkscape:current-layer="svg2"
     width="493px" />
  <style
     id="style3"
     type="text/css">
	.st0{fill:#FFFFFF;}
	.st1{display:none;fill:#87C214;}
	.st2{fill:#87C214;}
	.st3{display:none;fill:#FFFFFF;}
	.st4{fill:#95D220;}
	.st5{display:none;fill:#95D220;}
</style>
  <g
     id="g838"
     transform="matrix(0.21053343,0,0,0.21053343,427.40936,-6.2122037)"
     style="stroke-width:4.74983931">
    <g
       id="g1059"
       style="stroke-width:4.74983931">
      <path
         style="fill:#87c214;stroke-width:4.74983931"
         inkscape:connector-curvature="0"
         id="path15"
         d="m 94.299994,145.70001 v 119.5 c 0,9.7 7.899996,17.7 17.699996,17.7 h 8.3 c 9.7,0 17.7,-8 17.7,-17.7 v -119.5 z"
         class="st2" />
      <path
         style="fill:#87c214;stroke-width:4.74983931"
         inkscape:connector-curvature="0"
         id="path17"
         d="m 137.99999,88.000006 v -22.5 c 0,-9.7 -8,-17.7 -17.7,-17.7 h -8.3 c -9.7,0 -17.699996,8 -17.699996,17.7 v 22.5 z"
         class="st2" />
      <path
         style="fill:#87c214;stroke-width:4.74983931"
         inkscape:connector-curvature="0"
         id="path25"
         d="M 234.99999,185.00001 V 65.500006 c 0,-9.7 -7.9,-17.7 -17.7,-17.7 h -8.3 c -9.7,0 -17.7,8 -17.7,17.7 V 185.00001 Z"
         class="st2" />
      <path
         style="fill:#87c214;stroke-width:4.74983931"
         inkscape:connector-curvature="0"
         id="path29"
         d="m 191.29999,242.70001 v 22.5 c 0,9.7 8,17.7 17.7,17.7 h 8.3 c 9.7,0 17.7,-8 17.7,-17.7 v -22.5 z"
         class="st2" />
      <path
         style="fill:#95d220;stroke-width:4.74983931"
         inkscape:connector-curvature="0"
         id="path37"
         d="m 87.299994,192.00001 h -22.5 c -9.7,0 -17.7,7.9 -17.7,17.7 v 8.3 c 0,9.7 7.9,17.7 17.7,17.7 h 22.5 z"
         class="st4" />
      <path
         style="fill:#95d220;stroke-width:4.74983931"
         inkscape:connector-curvature="0"
         id="path41"
         d="m 264.49999,192.00001 h -119.5 v 43.7 h 119.5 c 9.7,0 17.7,-8 17.7,-17.7 v -8.3 c -0.1,-9.7 -8,-17.7 -17.7,-17.7 z"
         class="st4" />
      <path
         style="fill:#95d220;stroke-width:4.74983931"
         inkscape:connector-curvature="0"
         id="path51"
         d="M 184.29999,95.000006 H 64.799994 c -9.7,0 -17.7,7.900004 -17.7,17.700004 v 8.3 c 0,9.7 7.9,17.7 17.7,17.7 H 184.29999 Z"
         class="st4" />
      <path
         style="fill:#95d220;stroke-width:4.74983931"
         inkscape:connector-curvature="0"
         id="path53"
         d="m 264.49999,95.000006 h -22.5 v 43.700004 h 22.5 c 9.7,0 17.7,-7.9 17.7,-17.7 v -8.3 c -0.1,-9.7 -8,-17.700004 -17.7,-17.700004 z"
         class="st4" />
    </g>
  </g>
</svg>
