<?xml version="1.0" encoding="UTF-8" standalone="no"?>
<svg
   xmlns:dc="http://purl.org/dc/elements/1.1/"
   xmlns:cc="http://creativecommons.org/ns#"
   xmlns:rdf="http://www.w3.org/1999/02/22-rdf-syntax-ns#"
   xmlns:svg="http://www.w3.org/2000/svg"
   xmlns="http://www.w3.org/2000/svg"
   xmlns:xlink="http://www.w3.org/1999/xlink"
   xmlns:sodipodi="http://sodipodi.sourceforge.net/DTD/sodipodi-0.dtd"
   xmlns:inkscape="http://www.inkscape.org/namespaces/inkscape"
   version="1.1"
   id="svg2"
   sodipodi:docname="dialog.svg"
   inkscape:version="0.92.5 (2060ec1f9f, 2020-04-08)"
   width="493"
   height="312"
   inkscape:export-filename="dialog.png"
   inkscape:export-xdpi="96"
   inkscape:export-ydpi="96">
  <metadata
     id="metadata13">
    <rdf:RDF>
      <cc:Work
         rdf:about="">
        <dc:format>image/svg+xml</dc:format>
        <dc:type
           rdf:resource="http://purl.org/dc/dcmitype/StillImage" />
        <dc:title></dc:title>
      </cc:Work>
    </rdf:RDF>
  </metadata>
  <defs
     id="defs6">
    <linearGradient
       inkscape:collect="always"
       id="linearGradient1123">
      <stop
         style="stop-color:#0044aa;stop-opacity:1;"
         offset="0"
         id="stop1119" />
      <stop
         style="stop-color:#79f344;stop-opacity:1"
         offset="1"
         id="stop1121" />
    </linearGradient>
    <linearGradient
       inkscape:collect="always"
       xlink:href="#linearGradient1123"
       id="linearGradient1125"
       x1="434.21234"
       y1="27.777527"
       x2="487.01492"
       y2="27.777527"
       gradientUnits="userSpaceOnUse"
       gradientTransform="translate(-345.06367,-2.4622972)" />
  </defs>
  <sodipodi:namedview
     id="namedview4"
     pagecolor="#ffffff"
     bordercolor="#666666"
     borderopacity="1.0"
     inkscape:pageshadow="2"
     inkscape:pageopacity="0.0"
     inkscape:pagecheckerboard="0"
     showgrid="false"
     inkscape:zoom="0.55458332"
     inkscape:cx="-336.80909"
     inkscape:cy="233.53699"
     inkscape:window-width="1680"
     inkscape:window-height="981"
     inkscape:window-x="0"
     inkscape:window-y="0"
     inkscape:window-maximized="1"
     inkscape:current-layer="svg2"
     width="493px"
     inkscape:snap-page="true"
     inkscape:snap-global="false" />
  <path
     sodipodi:type="star"
     style="fill:url(#linearGradient1125);fill-opacity:1"
     id="path957"
     inkscape:flatsided="false"
     sodipodi:sides="5"
     sodipodi:cx="115.33324"
     sodipodi:cy="27.759957"
     sodipodi:r1="27.768814"
     sodipodi:r2="13.884408"
     sodipodi:arg1="0.96773607"
     sodipodi:arg2="1.5960546"
     inkscape:rounded="0"
     inkscape:randomized="0"
     d="M 131.08275,50.630457 114.98258,41.639936 98.448966,49.806009 102.02423,31.715609 89.148668,18.514665 107.45848,16.324705 116.03455,-2.1839437e-7 123.77537,16.736929 l 18.17587,3.111722 -13.52572,12.533951 z"
     inkscape:transform-center-x="-0.21671913"
     inkscape:transform-center-y="-2.4447277" />
  <rect
     style="fill:#2e3d4f;stroke-width:0.83427;fill-opacity:1"
     id="rect859"
     width="164"
     height="312"
     x="0"
     y="0" />
  <style
     id="style3"
     type="text/css">
	.st0{fill:#FFFFFF;}
	.st1{display:none;fill:#87C214;}
	.st2{fill:#87C214;}
	.st3{display:none;fill:#FFFFFF;}
	.st4{fill:#95D220;}
	.st5{display:none;fill:#95D220;}
</style>
  <g
     id="g844"
     transform="matrix(0.22810234,0,0,0.22810234,78.267585,8.31882)"
     style="stroke-width:4.38399696">
    <g
       id="g1059"
       style="stroke-width:4.38399696">
      <path
         style="fill:#87c214;stroke-width:4.38399696"
         inkscape:connector-curvature="0"
         id="path15"
         d="m 94.299994,145.70001 v 119.5 c 0,9.7 7.899996,17.7 17.699996,17.7 h 8.3 c 9.7,0 17.7,-8 17.7,-17.7 v -119.5 z"
         class="st2" />
      <path
         style="fill:#87c214;stroke-width:4.38399696"
         inkscape:connector-curvature="0"
         id="path17"
         d="m 137.99999,88.000006 v -22.5 c 0,-9.7 -8,-17.7 -17.7,-17.7 h -8.3 c -9.7,0 -17.699996,8 -17.699996,17.7 v 22.5 z"
         class="st2" />
      <path
         style="fill:#87c214;stroke-width:4.38399696"
         inkscape:connector-curvature="0"
         id="path25"
         d="M 234.99999,185.00001 V 65.500006 c 0,-9.7 -7.9,-17.7 -17.7,-17.7 h -8.3 c -9.7,0 -17.7,8 -17.7,17.7 V 185.00001 Z"
         class="st2" />
      <path
         style="fill:#87c214;stroke-width:4.38399696"
         inkscape:connector-curvature="0"
         id="path29"
         d="m 191.29999,242.70001 v 22.5 c 0,9.7 8,17.7 17.7,17.7 h 8.3 c 9.7,0 17.7,-8 17.7,-17.7 v -22.5 z"
         class="st2" />
      <path
         style="fill:#95d220;stroke-width:4.38399696"
         inkscape:connector-curvature="0"
         id="path37"
         d="m 87.299994,192.00001 h -22.5 c -9.7,0 -17.7,7.9 -17.7,17.7 v 8.3 c 0,9.7 7.9,17.7 17.7,17.7 h 22.5 z"
         class="st4" />
      <path
         style="fill:#95d220;stroke-width:4.38399696"
         inkscape:connector-curvature="0"
         id="path41"
         d="m 264.49999,192.00001 h -119.5 v 43.7 h 119.5 c 9.7,0 17.7,-8 17.7,-17.7 v -8.3 c -0.1,-9.7 -8,-17.7 -17.7,-17.7 z"
         class="st4" />
      <path
         style="fill:#95d220;stroke-width:4.38399696"
         inkscape:connector-curvature="0"
         id="path51"
         d="M 184.29999,95.000006 H 64.799994 c -9.7,0 -17.7,7.900004 -17.7,17.700004 v 8.3 c 0,9.7 7.9,17.7 17.7,17.7 H 184.29999 Z"
         class="st4" />
      <path
         style="fill:#95d220;stroke-width:4.38399696"
         inkscape:connector-curvature="0"
         id="path53"
         d="m 264.49999,95.000006 h -22.5 v 43.700004 h 22.5 c 9.7,0 17.7,-7.9 17.7,-17.7 v -8.3 c -0.1,-9.7 -8,-17.700004 -17.7,-17.700004 z"
         class="st4" />
    </g>
  </g>
</svg>
